<?xml version="1.0" encoding="UTF-8"?><svg height="289.925" xmlns="http://www.w3.org/2000/svg" viewBox="31.729 96.293 431.76 289.925" width="431.76"><style>@keyframes blink{0%,100%{fill:rgba(0,0,0,0)}60%{fill:rgb(51,51,51)}}</style><path d="M 65.281 324.803 C 67.929 324.803 70.112 325.668 71.965 327.398 C 73.818 329.128 74.744 331.229 74.744 333.639 L 74.744 364.288 L 41.192 364.288 C 38.546 364.288 36.362 363.423 34.508 361.693 C 32.656 359.963 31.729 357.862 31.729 355.452 L 31.729 340.869 L 66.869 340.869 L 66.869 333.639 C 66.869 333.207 66.737 332.898 66.406 332.589 C 66.075 332.28 65.745 332.156 65.281 332.156 L 31.729 332.156 L 31.729 324.803 L 65.281 324.803 Z M 66.869 356.935 L 66.869 348.222 L 39.604 348.222 L 39.604 355.452 C 39.604 355.885 39.737 356.194 40.067 356.503 C 40.398 356.811 40.729 356.935 41.192 356.935 L 66.869 356.935 Z M 142.776 324.803 L 151.18 324.803 L 135.298 364.288 L 128.878 364.288 L 114.65 334.937 L 101.216 364.288 L 101.083 364.227 L 101.149 364.288 L 94.796 364.288 L 78.186 324.803 L 86.524 324.803 L 97.973 351.003 L 110.15 324.803 L 119.15 324.803 L 132.054 351.003 L 142.776 324.803 Z M 187.247 324.803 C 189.894 324.803 192.078 325.668 193.931 327.398 C 195.784 329.128 196.71 331.229 196.71 333.639 L 196.71 348.222 L 161.57 348.222 L 161.57 355.452 C 161.57 355.885 161.702 356.194 162.033 356.503 C 162.364 356.811 162.695 356.935 163.158 356.935 L 196.71 356.935 L 196.71 364.288 L 163.158 364.288 C 160.511 364.288 158.328 363.423 156.474 361.693 C 154.621 359.963 153.695 357.862 153.695 355.452 L 153.695 333.639 C 153.695 331.167 154.621 329.128 156.474 327.398 C 158.328 325.668 160.577 324.803 163.158 324.803 L 187.247 324.803 Z M 161.57 340.869 L 188.835 340.869 L 188.835 333.639 C 188.835 333.207 188.703 332.898 188.372 332.589 C 188.041 332.28 187.71 332.156 187.247 332.156 L 163.158 332.156 C 162.695 332.156 162.364 332.28 162.033 332.589 C 161.702 332.898 161.57 333.207 161.57 333.639 L 161.57 340.869 Z M 246.939 333.701 L 246.939 335.184 L 239.064 335.184 L 239.064 333.701 C 239.064 333.268 238.932 332.959 238.601 332.65 C 238.27 332.342 237.939 332.218 237.476 332.218 L 213.387 332.218 C 212.924 332.218 212.593 332.342 212.262 332.65 C 211.931 332.959 211.799 333.268 211.799 333.701 L 211.799 339.448 C 211.799 339.88 211.931 340.189 212.262 340.498 C 212.593 340.807 212.924 340.931 213.387 340.931 L 237.476 340.931 C 240.123 340.931 242.307 341.796 244.16 343.526 C 246.013 345.256 246.939 347.357 246.939 349.767 L 246.939 355.514 C 246.939 357.986 246.013 360.025 244.16 361.755 C 242.307 363.485 240.056 364.35 237.476 364.35 L 213.387 364.35 C 210.74 364.35 208.557 363.485 206.703 361.755 C 204.85 360.025 203.924 357.924 203.924 355.514 L 203.924 354.031 L 211.799 354.031 L 211.799 355.514 C 211.799 355.946 211.931 356.255 212.262 356.564 C 212.593 356.873 212.924 356.997 213.387 356.997 L 237.476 356.997 C 237.939 356.997 238.27 356.873 238.601 356.564 C 238.932 356.255 239.064 355.946 239.064 355.514 L 239.064 349.767 C 239.064 349.335 238.932 349.026 238.601 348.717 C 238.27 348.408 237.939 348.284 237.476 348.284 L 213.387 348.284 C 210.74 348.284 208.557 347.419 206.703 345.689 C 204.85 343.959 203.924 341.858 203.924 339.448 L 203.924 333.701 C 203.924 331.229 204.85 329.19 206.703 327.46 C 208.557 325.73 210.806 324.865 213.387 324.865 L 237.476 324.865 C 240.123 324.865 242.307 325.73 244.16 327.46 C 246.013 329.128 246.939 331.229 246.939 333.701 Z M 263.616 324.803 L 287.705 324.803 C 290.352 324.803 292.536 325.668 294.389 327.398 C 296.242 329.128 297.168 331.229 297.168 333.639 L 297.168 355.452 C 297.168 357.924 296.242 359.963 294.389 361.693 C 292.536 363.423 290.285 364.288 287.705 364.288 L 263.616 364.288 C 260.969 364.288 258.786 363.423 256.932 361.693 C 255.079 359.963 254.153 357.862 254.153 355.452 L 254.153 333.639 C 254.153 331.167 255.079 329.128 256.932 327.398 C 258.786 325.668 261.035 324.803 263.616 324.803 Z M 287.705 332.156 L 263.616 332.156 C 263.153 332.156 262.822 332.28 262.491 332.589 C 262.16 332.898 262.028 333.207 262.028 333.639 L 262.028 355.452 C 262.028 355.885 262.16 356.194 262.491 356.503 C 262.822 356.811 263.153 356.935 263.616 356.935 L 287.705 356.935 C 288.168 356.935 288.499 356.811 288.83 356.503 C 289.161 356.194 289.293 355.885 289.293 355.452 L 289.293 333.639 C 289.293 333.207 289.161 332.898 288.83 332.589 C 288.499 332.342 288.168 332.156 287.705 332.156 Z M 358.846 324.803 C 361.493 324.803 363.677 325.668 365.53 327.398 C 367.383 329.128 368.309 331.229 368.309 333.639 L 368.309 364.288 L 360.501 364.288 L 360.501 333.639 C 360.501 333.207 360.368 332.898 360.037 332.589 C 359.706 332.28 359.309 332.156 358.846 332.156 L 342.169 332.156 C 341.706 332.156 341.375 332.28 341.044 332.589 C 340.713 332.898 340.581 333.207 340.581 333.639 L 340.581 364.288 L 332.706 364.288 L 332.706 333.639 C 332.706 333.207 332.573 332.898 332.242 332.589 C 331.912 332.28 331.581 332.156 331.118 332.156 L 314.375 332.156 C 313.911 332.156 313.581 332.28 313.249 332.589 C 312.918 332.898 312.787 333.207 312.787 333.639 L 312.787 364.288 L 304.911 364.288 L 304.911 324.803 L 358.846 324.803 Z M 409.472 324.803 C 412.119 324.803 414.303 325.668 416.156 327.398 C 418.009 329.128 418.935 331.229 418.935 333.639 L 418.935 348.222 L 383.795 348.222 L 383.795 355.452 C 383.795 355.885 383.928 356.194 384.258 356.503 C 384.589 356.811 384.92 356.935 385.383 356.935 L 418.935 356.935 L 418.935 364.288 L 385.383 364.288 C 382.736 364.288 380.553 363.423 378.699 361.693 C 376.847 359.963 375.92 357.862 375.92 355.452 L 375.92 333.639 C 375.92 331.167 376.847 329.128 378.699 327.398 C 380.553 325.668 382.802 324.803 385.383 324.803 L 409.472 324.803 Z M 383.795 340.869 L 411.06 340.869 L 411.06 333.639 C 411.06 333.207 410.928 332.898 410.597 332.589 C 410.266 332.28 409.935 332.156 409.472 332.156 L 385.383 332.156 C 384.92 332.156 384.589 332.28 384.258 332.589 C 383.928 332.898 383.795 333.207 383.795 333.639 L 383.795 340.869 Z" fill="rgb(151,82,82)"></path><path d="M 454.894 181.382 L 346.39 96.355 L 331.127 110.567 L 421.547 181.382 L 65.148 181.382 L 155.568 110.505 L 140.305 96.293 L 31.801 181.382 L 31.729 181.382 L 31.729 237.428 C 31.729 262.763 60.302 283.402 95.385 283.402 L 162.295 283.402 C 197.378 283.402 225.951 262.763 225.951 237.428 L 225.951 200.599 L 260.672 200.599 L 260.672 237.428 C 260.672 262.763 289.245 283.402 324.328 283.402 L 391.239 283.402 C 426.321 283.402 454.894 262.763 454.894 237.428 L 454.894 181.382 Z" fill="rgb(100,95,254)"></path><text style="animation:blink .8s infinite;white-space:pre;fill:rgb(51,51,51);font-size:30px" transform="matrix(8.077425, 0, 0, 2.675821, -3342.997559, -575.070923)" x="465.077" y="350">|</text></svg>